<svg xmlns="http://www.w3.org/2000/svg" xmlns:xlink="http://www.w3.org/1999/xlink" width="248" height="347" version="1.0"><defs><linearGradient id="a"><stop offset="0" stop-color="#cacaca"/><stop offset="1" stop-color="#9d9d9d"/></linearGradient><linearGradient xlink:href="#a" id="b" x1="95.459" x2="207.695" y1="-.448" y2="349.57" gradientUnits="userSpaceOnUse" spreadMethod="pad"/></defs><path fill="url(#b)" d="M0 0h248v347H0z"/><path fill="#666" fill-rule="evenodd" d="M72.215 144.884c-2.444.25-5.115.052-7.203 1.15-1.966.644-3.484 2.377-5.723 2.32-3.013.374-6.073.192-9.065.77-2.26-.1-4.57.708-5.746 2.604-1.053-.51-1.95-.548-2.394.406-1.94.659-3.708 1.739-5.723 2.223-1.602.578-4.618 1.664-5.402 1.705.3.897-2.225 1.888-3.02 2.879-1.712 1.614-3.74 3.356-4.577 5.663-1.474 1.998.85 3.59 1.313 5.123 1.02.19 1.95.845.54 1.467-1.76-.445-3.6-.898-5.335-.12-1.829.95-3.706 1.886-5.695 2.434-1.38-.478-3.045.83-1.15 1.698 1.985 1.155 3.401-1.287 5.157-1.862 1.57-1.248 4.998-.073 3.316 2.108-.668 2.369 2.653-.176 3.322-.805 1.8-2.084 4.62-1.042 6.762-2.124 1.212-1.538-.316-4.597 2.52-5.173 2.216-.02 5.08.73 6.642-1.398.721 2.506 4.523 1.043 5.135-.86 1.012-2.025 3.6-.97 4.214-3.342 1.21-2.245 3.816-2.46 5.73-3.661 1.202-1.31 1.935-3.024 4.034-2.09 3.496.517 7.033-.247 10.525.402 1.974.418 3.986-.457 5.981.023 1.786.302 3.476 1.463 4.44 2.935-.863 1.989-3.386 2.486-5.424 2.33-1.634.368-4.273-.842-5.203.973 1.522 1.892 4.424 1.977 6.164 3.697.57 1.759 3.144.127 3.785.86 1.113-.472 2.806-.044 4.002-.09 1.994-.151 1.95 3.538 3.744 1.84.867-1.596 1.5-.157 1.736.488.372-.964-.76-5.047.962-3.5.199 2.305 1.963 4.697 4.501 4.452 3.009-.186 6.064-.625 9.054-.182 1.845-.37-1.756-3.56.79-2.415 1.207.71 1.587 2.049.705 2.55 1.848 1.87 3.578 4.143 6.222 4.892 2.172-.393 2.202 2.977 4.25 1.744 1.334-.41 1.085 2.49 2.676.84 1.596-.387 4.207 1.822 5.4 1.5.77.58.797-.69 1.189.479 1.774 1.022 4.118.844 5.926 1.58 2.567-.753 5.219-1.03 7.682-1.767 1.046-.385 2.978.073 2.07 1.278 2.282.47 3.143 2.847 3.598 4.893.647 1.38.92 2.082.74 3.477.748 2.022.413 4.133 2.806 5.024 1.957 1.404 3.868 2.872 5.428 4.718 1.934 2.15 4.908.356 7.298 1.044 2.552.469 5.404.925 7.957.087 1.37-.657 2.764 1.264 3.47 1.63-1.25 1.658.391 2.28 1.823 2.294 1.694 1.476.203 4.798-1.757 5.286-1.945 1.14-3.971 2.13-5.707 3.555-1.915 1.462-4.15 3.102-4.75 5.536.498 2.6 3.84-.048 5.616.68 2.47-.226 4.537-2.224 7.189-1.008 2.036.634 3.933-.596 5.921-.875 3.418-.682 6.953-.172 10.378-.87 2.487-1.083 4.9.73 7.392.334 1.21-.108 2.37-2.056 2.353-.353 2.392.408 4.578 1.393 6.865 1.906 2.155-.122 4.885.576 6.603-1.032.753-1.13.132-2.754 1.925-2.63.011 1.38-1.071 2.08-1.006 3.352 2.027.25 3.756-.937 5.288-2.155 1.943-1.84 4.7-.804 7.041-1.325 1.945-.596 4.457-.4 6.112-.648 1.328-1.265 3.845-4.117.604-4.856-2.647.58-5.383-.102-6.804-2.605-1.408-1.863-3.412-3.165-5.111-4.618-2.225-.588-4.487-1.877-6.876-1.306-2.47-.8-5.14-.738-7.558-1.636-1.104-.876-2.476-2.213-2.793-3.53 2.662-1.612-.244-3.696-1.934-4.497-1.157.103-2.723-.073-3.443.487-1.354-.29-2.818 1.31-3.98-.051-1.48-.173-1.938-2.287-3.668-2.653-2.168-1.652-4.863-.797-7.272-1.365-1.134-.52-.62-2.053-2.23-1.71-2.967-.488-5.133-2.626-7.06-4.748-2.128-1.793-4.472-3.404-7.006-4.56-1.867-.34 3.062 4.199-.237 2.965-1.14-.973-.623-3.382-2.715-2.614-2.428.442-4.074-1.16-5.64-2.675-1.664-1.934 1.662-1.845 2.499-.77-.346-.89 1.301.15 1.244-1.188.981-2.142-2.583-2.432-2.872-1.997-.71-1.1-2.99-.346-3.58-.17-.252 2.124 4.329.55 2.233 2.57-.589.769-.858 2.702-1.967 1.007-1.328-2.117-2.964-4.237-5.546-4.836-2.498-.36-3.7-2.69-6.14-3.192-1.556-.49-3.127-2.313-4.599-2.127 1.066 1.579-1.326 1.018-1.579-.234-1.55-.962-3.806-.13-5.696-.201-1.967.196-4.088.332-5.886-.646-1.639-2.073-4.41-3.262-5.243-5.926-.848-2.36-3.899-1.63-5.148-3.221-.492-1.043 2.208-1.536.276-1.147-2.055 1.703-2.935-1.061-4.653-1.542-2.24-.217-4.42 1.484-6.63.14-1.756-.931-4.35-1.314-4.643-3.72.238-1.643-.956 1.19-2.11.525-2.155-.651-4.331 1.61-6.107-.282-1.468-.306-2.565 2.81-4.123.82-1.33-2.593-4.622-1.33-6.423.035-.833.185-.562-3.033-2.44-2.137-2.88.33-5.786.148-8.556-.733m69.936 14.095c-.81.6-.035 1.905.513.659.303 2.289 3.29 1.727 4.904 1.932-1.004 1.03 4.04.527 2.09-1.23-1.776-2.196-4.577.172-6.719-1.131l-.394-.12Zm9.73 2.66c-.685.028-2.946.92-1.306.87 1.122-.08.107 2.633 1.228 1.172.494-1.063.221 1.644 1.428 1.368.433.47 1.141-.84 1.664.382.191 1.147 1.224.117.82.344-.76 1.396.54 3.28 1.913 2.52.688.91 2.74 1.082 1.675-.457-1.425-.45.129-1.764-1.608-1.248-.889-.238-1.298-.813-1.36-1.858-2.328 1.24-1.725-3.99-4.254-2.95Zm-98.778 10.9c-.226.352.5 1.168-.743 1.055-2.259 1.095-1.508 4.312.16 5.61 1.911 2.135-2.612 3.102-3.308.977-1.247.167 1.01 2.868 2.205 2.916 2.332.99 4.994.71 7.253-.33 2.24-.394 3.83-2.564 2.16-4.4.309-2.167-2.318-2.75-2.674-4.783-1.586-.57-3.426-.493-5.053-1.045m111.836.447c-1.647.825.651 2.75 2.066 2.669-.29-.651-1.11-2.447-2.066-2.67"/><path stroke-linecap="round" stroke-width="6" d="M70.83 86.617q3.4-.352 5.312-2.66 2.463-2.906 2.333-9.098l3.225.788q.034 9.165-5.445 12.746-2.051 1.332-5.12 1.71ZM60.266 70.661q1.337 15.281 8.14 16.168l.305 3.487q-7.602.335-12.748-4.841-5.03-5.105-5.77-13.549-.764-8.744 3.5-14.908 2.025-2.895 4.97-4.69 2.944-1.794 6.54-2.109l.305 3.487q-5.293 1.314-5.475 10.525-.074 2.916.233 6.43m7.361-20.654q2.262.131 3.852.733 1.617.6 2.188.852.598.25.98.216.381-.033.615-.493.262-.462.53-1.171l2.587-.227 1.23 14.056-2.07.18q-.765-.893-1.857-3.02-1.094-2.156-1.8-3.329-.68-1.176-1.531-2.117-1.968-2.106-4.419-2.193Zm40.63 33.336q4.062-.63 5.484-2.896 1.299-2.09.908-6.557l-1.885-21.546q-.167-1.907-1.638-2.41-.653-.245-1.427-.314-.75-.1-1.487-.364l-.17-1.934 11.932-1.044.169 1.934q-.573.352-1.27.55-.668.196-1.246.494-1.307.745-1.155 2.489l1.88 21.492q.506 5.775-1.63 8.98-2.281 3.412-8.16 4.612Zm-2.119 3.698q-12.285 1.075-15.514-4.461-1.096-1.853-1.322-4.441l-2.085-23.835q-.15-1.716-1.562-2.169-.594-.195-1.314-.27-.695-.103-1.353-.402l-.17-1.934 17.325-1.516.17 1.934q-.737.366-1.46.567-.726.173-1.277.468-1.233.657-1.085 2.346l2.002 22.881q.474 5.421 4.111 6.832 1.335.515 3.229.514Zm32.474-25.376q7.628-.667 6.998-7.858-.45-5.149-4.472-6.252-1.377-.373-2.33-.29l-1.145.1q-.163.015-.297.054l-.231-2.642 4.685-.41q6.483-.567 9.773 1.588 3.315 2.125 3.704 6.565.331 3.786-2.302 6.322-2.33 2.235-6.531 3.152l.01.109q5.108-.282 8.504 1.836 3.748 2.362 4.155 7.02.415 4.74-2.983 7.946-3.725 3.538-11.161 4.188l-4.468.391-.262-2.996q.473.068 1.426-.015 8.118-.71 7.424-8.637-.693-7.927-10.227-7.093Zm-.515 22.031-12.939 1.132-.176-2.015q.709-.364 1.378-.56.694-.226 1.242-.548 1.146-.704.999-2.393l-2.476-28.302q-.15-1.716-1.402-2.21-.595-.223-1.316-.297-.695-.104-1.457-.34l-.178-2.042 12.939-1.132Zm34.501-36.093-4.027-.856q.063-1.158.039-2.062-.027-.93.075-1.653 2.277-1.27 7.72-2.432.862-.185 1.516-.243.752.758 1.116 1.467l15.39 30.658q1.001 2.026 2.152 2.941 1.175.886 2.822.879l.176 2.016-17.406 1.522-.15-1.716q.645-.468 1.336-.72.717-.283 1.3-.526 1.274-.496 1.188-1.476-.048-.545-.682-1.835Zm1.2 8.376-4.595 18.079q-.328 1.264-.257 2.081t.575 1.24q.502.395 1.206.608.73.183 1.537.305.806.121 1.518.416l.162 1.852-13.047 1.142-.162-1.853q.513-.401 1.12-.674.636-.275 1.258-.687 1.447-1.032 2.029-3.169l6.436-24.004Zm6.023 12.374-6.701.586.646-2.966 4.713-.412Z" aria-label="CUBA" font-family="'Stardos Stencil'" font-size="56" font-weight="700" style="-inkscape-font-specification:&quot;Stardos Stencil, Bold&quot;;text-align:center" text-anchor="middle" transform="translate(0 19.597)"/><circle cx="124" cy="276.479" r="24" fill="#fce550"/><path d="M113.76 292.837v-5.673q1.815-2.11 3.494-3.88 1.702-1.792 3.154-3.358 1.475-1.566 2.677-2.972 1.203-1.43 2.065-2.814 1.792-2.904 1.792-5.922 0-3.381-1.61-5.06-.523-.544-1.203-.816v-2.452q4.787.092 7.67 2.632 2.88 2.519 2.88 6.558 0 3.721-4.151 8.01-1.816 1.883-5.332 5.105-3.495 3.2-5.809 5.468h2.45v5.174Zm10.165-5.174h2.269q3.993 0 5.24-2.405.341-.658.614-1.316.68-1.724 1.384-2.224h.885v11.119h-10.392Zm-1.815-25.571q-2.678.204-3.767 1.906-.318.499-.386 1.043 1.884.114 2.837 1.452.748 1.044.748 2.133 0 1.067-.249 1.702-.25.635-.726 1.112-.953.998-2.27.998-1.292 0-2.04-.34-.75-.34-1.272-.953-1.066-1.226-1.066-2.972 0-1.748.567-3.087.59-1.36 1.656-2.428 2.27-2.268 5.968-2.768Z" aria-label="2" font-family="'Stardos Stencil'" font-size="56" font-weight="700" style="-inkscape-font-specification:&quot;Stardos Stencil, Bold&quot;;text-align:center" text-anchor="middle"/></svg>
